#!OML:ASF E:\Style6\Style6.ASF
:FULLY-SPECIFIED
:DEGREES
2082
root 0.477684 16.8119 0.185243 9.13249 -4.14719 0.372626
lowerback 4.43834 -1.0272 1.92097
upperback -11.8655 -0.868702 2.54355
thorax -15.6357 -0.438264 1.93606
lowerneck -3.58727 0.724756 3.02433
upperneck 20.0797 2.04465 -7.42295
head 6.78264 0.609289 -2.76813
rclavicle -5.96354e-016 -7.95139e-016
rhumerus -27.8784 22.8547 -92.1839
rradius 96.0922
rwrist 1.43038
rhand -31.8026 22.6395
rfingers 7.12502
rthumb -5.05813 -7.2801
lclavicle -5.96354e-016 -7.95139e-016
lhumerus -59.6991 -24.267 98.7722
lradius 98.9993
lwrist 27.4379
lhand -28.6777 24.0283
lfingers 7.12502
lthumb -2.04048 53.9983
rfemur -35.7441 -15.6203 19.5666
rtibia 52.5147
rfoot -18.4559 6.58008
rtoes -8.0705
lfemur -34.0564 12.209 -21.7241
ltibia 52.3995
lfoot -21.0004 3.25326
ltoes -21.905
2083
root 0.477569 16.8334 0.21008 8.97483 -4.25587 0.452477
lowerback 4.34315 -0.988241 1.81233
upperback -12.0844 -0.821693 2.58436
thorax -15.8462 -0.398225 2.04126
lowerneck -3.98652 0.769391 3.00024
upperneck 20.7067 2.16548 -7.54617
head 7.06423 0.637584 -2.80554
rclavicle -6.36111e-015 2.38542e-014
rhumerus -28.037 22.9035 -92.1989
rradius 96.1105
rwrist 1.19412
rhand -31.7384 22.4542
rfingers 7.12502
rthumb -4.99616 -7.46686
lclavicle -6.36111e-015 2.38542e-014
lhumerus -60.7143 -24.3843 99.6808
lradius 99.3208
lwrist 27.645
lhand -28.7207 24.2515
lfingers 7.12502
lthumb -2.08196 54.2211
rfemur -35.2772 -15.3987 19.371
rtibia 52.1555
rfoot -18.3911 6.3633
rtoes -8.60114
lfemur -33.5406 12.108 -21.7535
ltibia 52.0073
lfoot -20.9342 3.33708
ltoes -21.5418
2084
root 0.479215 16.8579 0.235973 8.88044 -4.35995 0.320916
lowerback 4.14312 -0.924652 1.97992
upperback -12.2955 -0.708621 2.63885
thorax -15.9868 -0.360499 1.99281
lowerneck -4.33194 0.791286 2.98451
upperneck 21.2867 2.23979 -7.59966
head 7.32005 0.651041 -2.82455
rclavicle 7.15625e-015 -6.36111e-015
rhumerus -28.237 22.8553 -92.2462
rradius 96.0215
rwrist 1.01471
rhand -31.6541 22.1577
rfingers 7.12502
rthumb -4.91475 -7.76532
lclavicle 7.15625e-015 -6.36111e-015
lhumerus -61.6181 -24.5702 100.515
lradius 99.6229
lwrist 27.8693
lhand -28.6107 24.3748
lfingers 7.12502
lthumb -1.97574 54.3454
rfemur -34.8295 -15.1697 19.4174
rtibia 51.7602
rfoot -18.3099 6.2253
rtoes -8.81512
lfemur -33.0911 12.0878 -21.5786
ltibia 51.6135
lfoot -20.8583 3.41662
ltoes -21.4741
2085
root 0.48035 16.8827 0.261006 8.80416 -4.43899 0.294608
lowerback 3.8956 -0.884851 2.05621
upperback -12.4828 -0.64528 2.67047
thorax -16.0634 -0.337606 1.97604
lowerneck -4.68638 0.829087 2.96204
upperneck 21.7871 2.32724 -7.62296
head 7.5539 0.673655 -2.83031
rclavicle -9.14409e-015 0
rhumerus -28.4426 22.8756 -92.3119
rradius 95.7581
rwrist 0.845594
rhand -31.8306 22.1976
rfingers 7.12502
rthumb -5.08519 -7.72141
lclavicle -9.14409e-015 0
lhumerus -62.3408 -24.739 101.301
lradius 99.9264
lwrist 28.0982
lhand -28.5199 24.4161
lfingers 7.12502
lthumb -1.88803 54.3875
rfemur -34.4322 -14.9787 19.3624
rtibia 51.3453
rfoot -18.2117 6.19667
rtoes -8.53114
lfemur -32.6655 12.029 -21.5262
ltibia 51.1884
lfoot -20.7133 3.54695
ltoes -21.6522
2086
root 0.481518 16.9067 0.286686 8.69432 -4.56707 0.282225
lowerback 3.69433 -0.821913 2.10055
upperback -12.6612 -0.553469 2.69567
thorax -16.1597 -0.297738 1.96616
lowerneck -5.03099 0.856858 2.9369
upperneck 22.3043 2.40094 -7.63666
head 7.79238 0.68996 -2.83395
rclavicle -1.51076e-014 1.82882e-014
rhumerus -28.6688 22.8904 -92.3935
rradius 95.4715
rwrist 0.609993
rhand -31.8257 22.0971
rfingers 7.12502
rthumb -5.08039 -7.82204
lclavicle -1.51076e-014 1.82882e-014
lhumerus -63.0162 -24.9189 102.068
lradius 100.282
lwrist 28.2871
lhand -28.5082 24.3347
lfingers 7.12502
lthumb -1.8767 54.3062
rfemur -33.9804 -14.7673 19.282
rtibia 50.9066
rfoot -18.125 6.12424
rtoes -8.35509
lfemur -32.1742 11.9957 -21.4772
ltibia 50.7684
lfoot -20.6307 3.66084
ltoes -21.4775
2087
root 0.483808 16.9291 0.314041 8.61093 -4.6916 0.325216
lowerback 3.5311 -0.755215 2.07109
upperback -12.9237 -0.463636 2.70416
thorax -16.3878 -0.250119 1.98418
lowerneck -5.1644 0.860684 2.90079
upperneck 22.7927 2.43287 -7.60409
head 7.98118 0.694106 -2.82337
rclavicle -9.54166e-015 9.54166e-015
rhumerus -29.1278 22.8566 -92.5613
rradius 95.1836
rwrist 0.473202
rhand -31.7507 21.8984
rfingers 7.12502
rthumb -5.00798 -8.02238
lclavicle -9.54166e-015 9.54166e-015
lhumerus -63.7894 -25.0478 102.876
lradius 100.684
lwrist 28.4327
lhand -28.2516 24.3098
lfingers 7.12502
lthumb -1.62887 54.2833
rfemur -33.5386 -14.6056 19.1545
rtibia 50.4605
rfoot -18.0934 5.79375
rtoes -10.2484
lfemur -31.7122 11.9368 -21.4957
ltibia 50.3554
lfoot -20.5746 3.77689
ltoes -21.3107
